<svg width="16" height="16" viewBox="0 0 16 16" fill="none" xmlns="http://www.w3.org/2000/svg">
<path d="M1.92706 3.67853C3.62816 1.27279 6.00836 0.249297 8.97784 0.551575L8.9798 0.552551C9.11123 0.565246 9.24479 0.583355 9.41925 0.611145C13.1112 1.32256 15.622 4.51675 15.4954 8.33185C15.3799 11.8237 12.5449 14.8877 8.96906 15.326L8.96808 15.327C7.53203 15.5083 6.07359 15.272 4.76788 14.6473L4.75421 14.6414L4.63995 14.5965C4.37025 14.5037 4.07928 14.4863 3.79913 14.5477L3.79132 14.5496C2.74387 14.8007 1.6999 15.0837 0.667297 15.3543C0.772419 14.9671 0.876461 14.585 0.979797 14.2059L1.47296 12.4315C1.5888 12.0285 1.55024 11.6866 1.37335 11.3104C0.118504 8.64531 0.233778 6.07177 1.92706 3.67853ZM9.4046 1.13751C7.97695 0.848745 6.64264 0.941633 5.44562 1.41681C4.24893 1.89186 3.21435 2.73857 2.36945 3.91779C1.52089 5.10208 1.07693 6.34711 1.0296 7.62579C0.988297 8.74293 1.2506 9.86462 1.78253 10.9734L2.02667 11.4481C2.09664 11.5755 2.12738 11.6675 2.138 11.7449C2.14558 11.8004 2.14469 11.8617 2.12823 11.9383L2.10675 12.0203C1.91358 12.6371 1.7598 13.2792 1.57843 13.951L1.39191 14.6434L2.08527 14.4637C2.86812 14.2606 3.52689 14.0733 4.20148 13.9256C4.31719 13.9003 4.46426 13.9206 4.5296 13.9559V13.9568C8.55195 16.171 13.3235 14.2535 14.7044 9.90411L14.8265 9.4754L14.8284 9.47052C15.0655 8.50069 15.0953 7.50725 14.8597 6.52618H14.8607C14.5179 5.09613 13.8953 3.89404 12.9769 2.97345C12.0571 2.05168 10.8604 1.43256 9.4046 1.13751ZM5.21417 4.72833C5.30445 4.70165 5.41224 4.6973 5.54425 4.72345C5.55214 4.73225 5.56354 4.7444 5.57745 4.76251C5.60516 4.7986 5.63243 4.83741 5.6712 4.8924C5.69425 4.92508 5.72282 4.96127 5.75226 4.99982C5.81673 5.15692 5.86937 5.30124 5.93585 5.4715C5.98685 5.60209 6.04282 5.73914 6.11163 5.87482L6.18488 6.00958C6.27541 6.16591 6.28327 6.26672 6.27277 6.32892C6.26202 6.39189 6.22236 6.47871 6.09991 6.58673C5.86468 6.79395 5.6935 7.04982 5.69464 7.37189C5.69581 7.66456 5.8424 7.91819 5.98468 8.11896C6.63799 9.03982 7.46593 9.73777 8.51007 10.1942V10.1951C8.65566 10.2588 8.86323 10.335 9.0882 10.3055C9.34657 10.2715 9.53575 10.1148 9.66827 9.90997C9.68541 9.88367 9.70978 9.85343 9.75128 9.80743L9.89874 9.64044C9.96252 9.56102 10.0161 9.49148 10.0599 9.43439C10.0915 9.39322 10.116 9.36034 10.137 9.3338C10.2202 9.36721 10.3287 9.41634 10.512 9.49591V9.49493C10.7506 9.59908 10.9706 9.70301 11.1683 9.82501L11.1693 9.82599C11.235 9.86618 11.3089 9.90625 11.3685 9.93927C11.4328 9.97496 11.4873 10.005 11.5335 10.035C11.5635 10.0544 11.5831 10.0714 11.597 10.0828C11.6361 10.3133 11.5777 10.5456 11.4046 10.742L11.3177 10.8289C10.7779 11.3092 10.1658 11.4002 9.43488 11.1981C7.72907 10.7272 6.4122 9.70574 5.39191 8.2674C5.07538 7.82132 4.79462 7.34156 4.59894 6.85138L4.52081 6.64044C4.34501 6.12978 4.42152 5.63146 4.7464 5.15411L4.9007 4.95099C5.0112 4.81993 5.11681 4.75713 5.21417 4.72833Z" stroke="#F3F1F0" stroke-width="0.833333"/>
</svg>
